<?xml version="1.0" standalone="no"?>
<!DOCTYPE svg PUBLIC "-//W3C//DTD SVG 20010904//EN"
 "http://www.w3.org/TR/2001/REC-SVG-20010904/DTD/svg10.dtd">
<svg version="1.0" xmlns="http://www.w3.org/2000/svg"
 width="1248.000000pt" height="253.000000pt" viewBox="0 0 1248.000000 253.000000"
 preserveAspectRatio="xMidYMid meet">

<g transform="translate(0.000000,253.000000) scale(0.100000,-0.100000)"
fill="#000000" stroke="none">
<path d="M595 1828 c-70 -38 -115 -121 -115 -209 0 -61 31 -128 195 -423 85
-153 152 -282 149 -287 -3 -5 -77 -9 -165 -9 l-159 0 0 -90 0 -90 209 0 c239
0 239 0 285 92 34 67 36 172 6 248 -11 28 -85 170 -165 315 -80 145 -145 266
-145 269 0 3 70 6 155 6 l155 0 0 95 0 95 -192 0 c-121 0 -200 -5 -213 -12z"/>
<path d="M1395 1797 c-56 -58 -89 -119 -124 -224 -95 -284 -45 -617 120 -798
l51 -55 168 0 168 0 50 62 c62 75 103 156 134 263 20 69 23 101 22 240 0 145
-3 169 -28 250 -34 110 -76 192 -134 256 l-44 49 -171 0 -170 0 -42 -43z m301
-199 c54 -106 78 -309 53 -457 -13 -81 -45 -177 -71 -214 -18 -26 -24 -28 -76
-25 -55 3 -57 4 -79 44 -86 155 -91 478 -11 639 32 62 36 65 99 65 l59 0 26
-52z"/>
<path d="M2414 1790 c-203 -206 -247 -583 -105 -885 21 -44 58 -104 81 -132
l44 -53 203 0 203 0 0 90 0 90 -134 0 -135 0 -25 33 c-28 37 -59 123 -77 215
-26 138 5 351 67 460 l25 42 139 0 140 0 0 95 0 95 -188 0 -189 0 -49 -50z"/>
<path d="M3100 1280 l0 -560 110 0 110 0 0 560 0 560 -110 0 -110 0 0 -560z"/>
<path d="M3760 1832 c0 -5 -47 -253 -105 -553 -58 -299 -105 -547 -105 -551 0
-5 49 -8 108 -8 l108 0 13 77 c7 42 15 82 18 90 4 10 34 13 128 13 141 0 126
11 146 -107 l12 -73 108 0 109 0 -6 28 c-3 15 -49 266 -102 557 l-97 530 -167
3 c-93 1 -168 -1 -168 -6z m230 -582 c17 -91 30 -169 30 -173 0 -4 -45 -7
-100 -7 -75 0 -98 3 -95 13 3 6 23 120 45 252 56 334 51 318 72 190 10 -60 32
-184 48 -275z"/>
<path d="M4530 1280 l0 -560 275 0 275 0 0 90 0 90 -165 0 -165 0 0 470 0 470
-110 0 -110 0 0 -560z"/>
<path d="M5865 1778 c-62 -69 -124 -186 -150 -283 -22 -86 -30 -246 -16 -343
22 -147 86 -299 163 -387 l40 -45 204 0 204 0 0 90 0 90 -139 0 -140 0 -22 31
c-33 47 -68 161 -81 266 -10 81 -10 109 4 192 19 108 48 196 79 235 20 26 22
26 160 26 l139 0 0 95 0 95 -194 0 -194 0 -57 -62z"/>
<path d="M6664 1793 c-58 -61 -117 -182 -145 -298 -28 -117 -30 -295 -5 -410
23 -104 92 -248 151 -313 l47 -52 169 0 168 0 51 61 c62 74 103 153 132 256
20 67 23 101 23 243 0 142 -3 176 -23 243 -30 106 -84 210 -139 268 l-46 49
-169 0 -168 0 -46 -47z m291 -165 c8 -13 28 -59 42 -103 25 -74 27 -93 27
-245 0 -153 -2 -171 -27 -246 -15 -45 -37 -93 -48 -108 -19 -24 -27 -27 -77
-24 -55 3 -56 3 -79 49 -90 175 -87 515 7 667 19 30 23 32 79 32 51 0 62 -3
76 -22z"/>
<path d="M7556 1788 c-7 -64 -66 -989 -66 -1036 l0 -33 103 3 102 3 14 303 c8
166 17 302 20 302 4 0 26 -80 50 -177 24 -98 50 -199 58 -225 l14 -48 64 0
c62 0 65 1 71 28 4 15 31 117 59 227 44 168 53 194 58 165 4 -19 12 -158 18
-307 l12 -273 104 0 103 0 0 25 c0 32 -57 928 -65 1023 l-7 72 -98 0 -99 0
-11 -37 c-5 -21 -40 -157 -76 -303 -36 -146 -67 -266 -69 -268 -2 -2 -22 75
-45 170 -23 95 -58 233 -78 306 l-35 132 -98 0 -98 0 -5 -52z"/>
<path d="M8610 1280 l0 -560 105 0 105 0 0 170 0 170 100 0 c123 0 171 20 248
104 147 161 142 443 -10 596 -78 77 -89 80 -333 80 l-215 0 0 -560z m393 338
c34 -46 49 -98 48 -173 0 -72 -20 -127 -58 -167 -24 -26 -33 -28 -100 -28
l-73 0 0 193 c0 107 3 197 7 200 3 4 39 7 79 7 71 0 74 -1 97 -32z"/>
<path d="M9610 1831 c0 -6 -47 -255 -105 -554 -58 -299 -105 -547 -105 -550 0
-4 49 -7 109 -7 l108 0 13 77 c6 42 14 83 17 90 7 19 249 19 256 0 3 -7 11
-48 17 -90 l13 -77 109 0 c99 0 109 2 104 18 -2 9 -49 261 -103 559 l-98 543
-167 0 c-99 0 -168 -4 -168 -9z m248 -679 c19 -87 24 -82 -88 -82 -75 0 -98 3
-95 13 4 11 94 516 96 541 1 6 18 -86 38 -204 21 -118 43 -239 49 -268z"/>
<path d="M10380 1280 l0 -560 101 0 101 0 -4 310 c-2 170 -1 307 1 304 3 -3
71 -141 151 -307 l146 -302 77 -3 77 -3 0 561 0 560 -101 0 -101 0 3 -319 c3
-176 3 -318 1 -317 -1 2 -67 144 -147 317 l-144 314 -80 3 -81 3 0 -561z"/>
<path d="M11243 1827 c3 -8 57 -178 121 -379 l116 -366 0 -181 0 -181 115 0
115 0 0 187 0 187 115 362 c63 200 115 368 115 374 0 7 -35 10 -106 8 l-106
-3 -49 -165 c-26 -91 -55 -208 -64 -260 -9 -52 -18 -96 -20 -98 -5 -5 -11 21
-25 108 -6 36 -34 145 -62 243 l-51 177 -110 0 c-87 0 -108 -3 -104 -13z"/>
</g>
</svg>
